<svg id="Icons" viewBox="0 0 60 60" xmlns="http://www.w3.org/2000/svg"><path d="m39.96 32.06c.66 2.15 1.04 4.43 1.04 6.91 0 11.149-9.1 20.169-20.269 20.029-12.8-.16-21.849-12.109-19.299-24.659 2.559-12.64 15.049-20.379 19.149-33.049.12-.39.69-.39.81.01 1.98 6.1 5.89 11.049 9.72 15.959l8.85 14.799z" fill="#f9415b"/><circle cx="45" cy="19" fill="#f2f9fc" r="14"/><path d="m21 47h-.026c-.449-.013-.835-.322-.943-.758l-3.222-12.884-1.872 4.993c-.146.39-.52.648-.937.648h-5c-.553 0-1-.447-1-1s.447-1 1-1h4.307l2.757-7.351c.154-.41.551-.668.993-.647.438.025.808.332.913.756l3.13 12.518 2.944-9.569c.125-.405.491-.688.915-.705.421-.018.812.234.97.628l1.748 4.371h5.323c.553 0 1 .447 1 1s-.447 1-1 1h-6c-.409 0-.776-.249-.929-.629l-.948-2.371-3.167 10.294c-.13.421-.518.706-.956.706z" fill="#fff"/><path d="m38.64 26.78c-.39.39-1.03.39-1.42 0-2.14-2.14-3.22-4.96-3.22-7.78l1-1 1.01 1c0 2.3.87 4.6 2.63 6.36.39.39.39 1.03 0 1.42z" fill="#4aafa3"/><path d="m45 8 1 1-1 1.01c-1.18 0-2.35.22-3.45.68-1.06.44-2.05 1.09-2.91 1.95-1.76 1.76-2.63 4.06-2.63 6.36h-2.01c0-2.82 1.08-5.64 3.22-7.78s4.96-3.22 7.78-3.22z" fill="#5dcec4"/><path d="m56 19-1 1-1.01-1c0-2.3-.87-4.6-2.63-6.36-1.75-1.76-4.06-2.63-6.36-2.63v-2.01c2.82 0 5.64 1.08 7.78 3.22s3.22 4.96 3.22 7.78z" fill="#f9d438"/><path d="m56 19c0 2.82-1.08 5.64-3.22 7.78-.2.19-.45.29-.71.29s-.51-.1-.71-.29c-.39-.39-.39-1.03 0-1.42 1.76-1.76 2.63-4.06 2.63-6.36z" fill="#f9415b"/><path d="m44.995 20c-.19 0-.384-.055-.554-.168-.46-.307-.584-.928-.277-1.387l6.004-9c.306-.459.928-.585 1.387-.277.46.307.584.928.277 1.387l-6.004 9c-.192.289-.51.445-.833.445z" fill="#313851"/><path d="m45 34c-8.271 0-15-6.729-15-15s6.729-15 15-15 15 6.729 15 15-6.729 15-15 15zm0-28c-7.168 0-13 5.832-13 13s5.832 13 13 13 13-5.832 13-13-5.832-13-13-13z" fill="#313851"/><circle cx="45" cy="19" fill="#3e4968" r="2"/></svg>